# xmcd
# 
# Track frame offsets:
#     150
#     14775
#     32088
#     48966
#     60685
#     78033
#     97169
#     116647
#     131461
#     147668
#     164625
#     181081
#     193535
# 
# Disc length: 2772
# 
# Revision: 3
# Processed by: cddbd v1.5.2PL0 Copyright (c) Steve Scherf et al.
# Submitted via: BonkEnc v1.0.8
# 
DISCID=b60ad20d
DTITLE=К. Орбакайте - My Life - My Life
DYEAR=2005
DGENRE=Pop
TTITLE0=Все сначала
TTITLE1=Ты ненормальный
TTITLE2=Где любовь, там беда
TTITLE3=Байки
TTITLE4=Помни, не забывай
TTITLE5=H2O
TTITLE6=День рождения
TTITLE7=Половинка
TTITLE8=My Life
TTITLE9=Это просто сам
TTITLE10=Только сам
TTITLE11=Каждый день с тобой
TTITLE12=Тучи в голубом
EXTD=YEAR: 2005
EXTT0=
EXTT1=
EXTT2=
EXTT3=
EXTT4=
EXTT5=
EXTT6=
EXTT7=
EXTT8=
EXTT9=
EXTT10=
EXTT11=
EXTT12=
PLAYORDER=
